<?xml version="1.0" encoding="utf-8"?>
<!-- Generator: Adobe Illustrator 23.0.3, SVG Export Plug-In . SVG Version: 6.00 Build 0)  -->
<svg version="1.1" id="Layer_1" xmlns="http://www.w3.org/2000/svg" xmlns:xlink="http://www.w3.org/1999/xlink" x="0px" y="0px"
	 viewBox="0 0 180.6 58.7" style="enable-background:new 0 0 180.6 58.7;" xml:space="preserve">
<style type="text/css">
	.st0{fill:#B56348;}
	.st1{fill:#E5C898;}
	.st2{fill:#8E3436;}
	.st3{fill:#7B5336;}
	.st4{fill:#3A96A1;}
	.st5{fill:#BAA544;}
	.st6{fill:#F7AD1E;}
	.st7{fill:#833031;}
</style>
<g>
	<path class="st0" d="M10.2,13.7L8.6,27.3l6.4,0C13.4,19.1,11.7,15.2,10.2,13.7z"/>
	<path class="st1" d="M4,19.2c-1.8,6.1-4,8.1-4,8.1l7.4,0l1.9-14.2C6.3,11.8,4,19.2,4,19.2z"/>
	<path class="st2" d="M10.4,12.3c0,0,4,3.8,5.7,15.1c0,0,2.3,16,7.4,14.3l-3.4-23.2C20.1,18.5,15.8-18.6,10.4,12.3z"/>
	<path class="st3" d="M28.4,27.3h-5.9c0,0,1.6,12.4,1.8,13.8c0,0,1.6-4.3,2.7-8.1C27.1,32.9,27.8,30.6,28.4,27.3z"/>
	<path class="st4" d="M29.5,27.3c-3,13.2-4.9,15.3-4.9,15.3c6.3,39.9,8.7-7.1,8.7-7.1c0.3-6.3,2.6-15.9,2.6-15.9
		C30.6,19.4,29.5,27.3,29.5,27.3z"/>
	<path class="st5" d="M36.7,20c0,0-1.5,7.3-1.5,7.3l6.4,0c-0.3-0.4-1.8-3.2-1.8-3.2C38.7,22.1,36.7,20,36.7,20z"/>
	<path class="st6" d="M44.6,17.7c-0.6-1.1-4.7-10.3-7.7,1.2c0,0,2.3,1.7,4.8,6.7c0,0,2.5,5.8,6.7,4.7C48.5,30.3,45.2,18.8,44.6,17.7
		z"/>
</g>
<g>
	<path class="st7" d="M63.8,4.9h2l8.5,18.7H72l-2.2-4.9H59.7l-2.2,4.9h-2.1L63.8,4.9z M69,16.8l-4.2-9.5l-4.2,9.5H69z"/>
	<path class="st7" d="M77.9,5.1h13.3V7H80v6.6h10.1v1.9H80v8.1h-2.1L77.9,5.1L77.9,5.1z"/>
	<path class="st7" d="M95.3,5.1h8c2.3,0,4.1,0.7,5.3,1.9c0.9,0.9,1.4,2.2,1.4,3.7v0.1c0,3.1-2.1,4.9-5,5.4l5.7,7.6h-2.6l-5.4-7.2
		h-5.3v7.2h-2.1L95.3,5.1L95.3,5.1z M103.1,14.5c2.8,0,4.8-1.4,4.8-3.8v-0.1c0-2.3-1.7-3.7-4.7-3.7h-5.7v7.5H103.1z"/>
	<path class="st7" d="M114.6,5.1h2.1v18.6h-2.1V5.1z"/>
	<path class="st7" d="M121.3,14.4L121.3,14.4c0-5.3,3.9-9.6,9.4-9.6c3.4,0,5.4,1.2,7.2,2.9l-1.4,1.5c-1.6-1.5-3.3-2.5-5.8-2.5
		c-4.1,0-7.2,3.3-7.2,7.6v0.1c0,4.3,3.1,7.7,7.2,7.7c2.5,0,4.2-1,6-2.7l1.4,1.4c-1.9,2-4.1,3.3-7.4,3.3
		C125.3,23.9,121.3,19.7,121.3,14.4z"/>
	<path class="st7" d="M148.6,4.9h2l8.5,18.7h-2.3l-2.2-4.9h-10.1l-2.2,4.9h-2.1L148.6,4.9z M153.8,16.8l-4.2-9.5l-4.2,9.5H153.8z"/>
	<path class="st7" d="M159.3,10.1c1.3-0.5,1.9-1.2,1.8-2.3h-1V5.1h2.4v2.4c0,2.1-0.9,3.2-2.9,3.6L159.3,10.1z"/>
	<path class="st7" d="M165.8,20.9l1.3-1.5c1.9,1.7,3.8,2.6,6.4,2.6c2.5,0,4.1-1.3,4.1-3.2v-0.1c0-1.7-0.9-2.7-4.8-3.5
		c-4.3-0.9-6.2-2.3-6.2-5.4V9.9c0-2.9,2.6-5.1,6.1-5.1c2.7,0,4.6,0.8,6.5,2.3L178,8.7c-1.7-1.4-3.4-2-5.4-2c-2.4,0-3.9,1.3-3.9,3
		v0.1c0,1.7,1,2.7,5,3.6c4.1,0.9,6,2.4,6,5.2v0.1c0,3.2-2.7,5.2-6.3,5.2C170.5,23.9,168.1,22.9,165.8,20.9z"/>
	<path class="st4" d="M55.6,27.7h2.9l8.2,19.8l8.2-19.8h2.8l-9.9,23.2h-2.3L55.6,27.7z"/>
	<path class="st4" d="M79.9,39.3L79.9,39.3c0-6.4,4.8-12,11.8-12c7,0,11.7,5.5,11.7,11.8v0.1c0,6.4-4.8,11.9-11.8,11.9
		C84.6,51.1,79.9,45.7,79.9,39.3z M100.7,39.3L100.7,39.3c0-5.3-3.8-9.6-9.1-9.6c-5.3,0-9,4.2-9,9.4v0.1c0,5.2,3.8,9.5,9.1,9.5
		C97,48.7,100.7,44.5,100.7,39.3z"/>
	<path class="st4" d="M109.1,27.7h2.6v23h-2.6V27.7z"/>
	<path class="st4" d="M117.5,39.3L117.5,39.3c0-6.6,4.9-12,11.6-12c4.2,0,6.7,1.5,9,3.6l-1.8,1.9c-1.9-1.8-4.1-3.1-7.2-3.1
		c-5.1,0-8.9,4.1-8.9,9.4v0.1c0,5.3,3.9,9.5,8.9,9.5c3.2,0,5.2-1.2,7.4-3.3l1.7,1.7c-2.4,2.4-5,4-9.2,4
		C122.4,51.1,117.5,45.9,117.5,39.3z"/>
	<path class="st4" d="M142.8,27.7h16.6v2.4h-14V38h12.6v2.4h-12.6v8.1h14.2v2.4h-16.8L142.8,27.7L142.8,27.7z"/>
	<path class="st4" d="M163.3,47.4l1.6-1.9c2.4,2.2,4.7,3.3,7.9,3.3c3.1,0,5.1-1.6,5.1-3.9v-0.1c0-2.1-1.2-3.4-6-4.4
		c-5.3-1.2-7.7-2.9-7.7-6.6v-0.1c0-3.6,3.2-6.3,7.6-6.3c3.4,0,5.8,0.9,8.1,2.8l-1.5,2c-2.1-1.7-4.3-2.5-6.6-2.5
		c-3,0-4.9,1.6-4.9,3.7v0.1c0,2.2,1.2,3.4,6.3,4.5c5.1,1.1,7.5,3,7.5,6.5v0.1c0,3.9-3.3,6.5-7.9,6.5C169,51.1,166.1,49.9,163.3,47.4
		z"/>
</g>
</svg>
