<?xml version="1.0" encoding="utf-8"?>
<!-- Generator: Adobe Illustrator 25.1.0, SVG Export Plug-In . SVG Version: 6.00 Build 0)  -->
<svg version="1.1" id="Layer_1" xmlns="http://www.w3.org/2000/svg" xmlns:xlink="http://www.w3.org/1999/xlink" x="0px" y="0px"
	 viewBox="0 0 246.8 232.4" style="enable-background:new 0 0 246.8 232.4;" xml:space="preserve">
<style type="text/css">
	.st0{fill:#F5333F;}
	.st1{fill:#333132;}
</style>
<polygon class="st0" points="42.2,43.4 42.2,1.2 78.4,1.2 78.4,43.4 78.4,43.4 120.6,43.4 120.6,79.6 78.4,79.6 78.4,79.6 
	78.4,121.8 42.2,121.8 42.2,79.6 42.2,79.6 0,79.6 0,43.4 42.2,43.4 "/>
<path class="st0" d="M176.5,60.9c0-28.1,22.8-50.9,50.9-50.9c6.3,0,12.2,1.1,17.8,3.2C234.8,4.9,221.7,0,207.3,0
	c-33.7,0-61.1,27.4-61.1,61.1c0,33.7,27.3,61.1,61.1,61.1c14.8,0,28.3-5.2,38.9-14c-5.8,2.3-12.2,3.6-18.8,3.6
	C199.3,111.7,176.5,88.9,176.5,60.9"/>
<path class="st1" d="M216.8,232.4c6.3,0,12-1.1,17.1-3.3c5.1-2.2,9.4-5.4,12.9-9.7l-10.8-10c-4.9,5.8-11,8.6-18.3,8.6
	c-4.5,0-8.5-1-12-3s-6.3-4.7-8.3-8.3c-2-3.5-3-7.5-3-12.1c0-4.5,1-8.5,3-12.1s4.7-6.3,8.3-8.3c3.5-2,7.5-3,12-3
	c7.3,0,13.4,2.8,18.3,8.5l10.8-10c-3.5-4.2-7.7-7.3-12.8-9.6c-5.1-2.2-10.8-3.3-17.1-3.3c-7.5,0-14.2,1.6-20.2,4.8
	c-6,3.2-10.7,7.7-14.1,13.4c-3.4,5.7-5.1,12.2-5.1,19.4c0,7.2,1.7,13.7,5.1,19.4c3.4,5.7,8.1,10.2,14.1,13.4
	C202.7,230.7,209.4,232.4,216.8,232.4 M149.6,184.8c0,4-1.3,7.1-3.9,9.4c-2.6,2.2-6.5,3.3-11.5,3.3h-13.7v-25.4h13.7
	c5.1,0,8.9,1.1,11.5,3.3C148.3,177.6,149.6,180.7,149.6,184.8 M168,231.1l-16.3-23.4c4.8-2.1,8.5-5.1,11.1-9c2.6-3.9,3.9-8.6,3.9-14
	s-1.3-10.1-3.8-14s-6.2-7-11-9.1s-10.3-3.2-16.8-3.2h-31.5v72.7h16.8v-20.3H135h0.8l14,20.3L168,231.1z M89,171.9v-13.5h-55v72.7
	h16.8v-26.5h33.7v-13.5H50.9v-19.2L89,171.9L89,171.9z M0,231.1h16.8v-72.7H0V231.1z"/>
</svg>
