<svg width="100%" height="100%" viewBox="0 0 121 113" fill="none" xmlns="http://www.w3.org/2000/svg">
<path fill-rule="evenodd" clip-rule="evenodd" d="M60.6652 5.3751C48.656 12.3221 40.5763 25.3064 40.5763 40.178C40.5763 55.0495 48.656 68.0338 60.6652 74.9808C54.7556 78.3994 47.8944 80.3559 40.5763 80.3559C18.3866 80.3559 0.398315 62.3676 0.398315 40.178C0.398315 17.9883 18.3866 0 40.5763 0C47.8944 0 54.7556 1.95655 60.6652 5.3751Z" fill="#6A1B9A"/>
<path fill-rule="evenodd" clip-rule="evenodd" d="M60.6653 5.37515C72.6745 12.3221 80.7542 25.3065 80.7542 40.178C80.7542 55.0495 72.6745 68.0339 60.6653 74.9809C66.5749 78.3994 73.4361 80.356 80.7542 80.356C102.944 80.356 120.932 62.3677 120.932 40.178C120.932 17.9883 102.944 5.18332e-05 80.7542 4.98933e-05C73.4361 4.92535e-05 66.5749 1.95661 60.6653 5.37515Z" fill="#E7404A"/>
<path d="M8.88281 103.844L6.98438 105.795V112H2.71289V85H6.98438V100.574L8.32031 98.9043L13.5762 92.9805H18.709L11.6426 100.908L19.4648 112H14.5254L8.88281 103.844ZM32.877 112C32.6895 111.637 32.5254 111.045 32.3848 110.225C31.0254 111.643 29.3613 112.352 27.3926 112.352C25.4824 112.352 23.9238 111.807 22.7168 110.717C21.5098 109.627 20.9062 108.279 20.9062 106.674C20.9062 104.646 21.6562 103.094 23.1562 102.016C24.668 100.926 26.8242 100.381 29.625 100.381H32.2441V99.1328C32.2441 98.1484 31.9688 97.3633 31.418 96.7773C30.8672 96.1797 30.0293 95.8809 28.9043 95.8809C27.9316 95.8809 27.1348 96.127 26.5137 96.6191C25.8926 97.0996 25.582 97.7148 25.582 98.4648H21.3105C21.3105 97.4219 21.6562 96.4492 22.3477 95.5469C23.0391 94.6328 23.9766 93.918 25.1602 93.4023C26.3555 92.8867 27.6855 92.6289 29.1504 92.6289C31.377 92.6289 33.1523 93.1914 34.4766 94.3164C35.8008 95.4297 36.4805 97 36.5156 99.0273V107.605C36.5156 109.316 36.7559 110.682 37.2363 111.701V112H32.877ZM28.1836 108.924C29.0273 108.924 29.8184 108.719 30.5566 108.309C31.3066 107.898 31.8691 107.348 32.2441 106.656V103.07H29.9414C28.3594 103.07 27.1699 103.346 26.373 103.896C25.5762 104.447 25.1777 105.227 25.1777 106.234C25.1777 107.055 25.4473 107.711 25.9863 108.203C26.5371 108.684 27.2695 108.924 28.1836 108.924ZM46.3418 88.3574V92.9805H49.6992V96.1445H46.3418V106.762C46.3418 107.488 46.4824 108.016 46.7637 108.344C47.0566 108.66 47.5723 108.818 48.3105 108.818C48.8027 108.818 49.3008 108.76 49.8047 108.643V111.947C48.832 112.217 47.8945 112.352 46.9922 112.352C43.7109 112.352 42.0703 110.541 42.0703 106.92V96.1445H38.9414V92.9805H42.0703V88.3574H46.3418ZM57.5215 112H53.25V92.9805H57.5215V112ZM52.9863 88.041C52.9863 87.3848 53.1914 86.8398 53.6016 86.4062C54.0234 85.9727 54.6211 85.7559 55.3945 85.7559C56.168 85.7559 56.7656 85.9727 57.1875 86.4062C57.6094 86.8398 57.8203 87.3848 57.8203 88.041C57.8203 88.6855 57.6094 89.2246 57.1875 89.6582C56.7656 90.0801 56.168 90.291 55.3945 90.291C54.6211 90.291 54.0234 90.0801 53.6016 89.6582C53.1914 89.2246 52.9863 88.6855 52.9863 88.041Z" fill="#6A1B9A"/>
<path d="M68.3672 103.844L66.4688 105.795V112H62.1973V85H66.4688V100.574L67.8047 98.9043L73.0605 92.9805H78.1934L71.127 100.908L78.9492 112H74.0098L68.3672 103.844ZM92.3613 112C92.1738 111.637 92.0098 111.045 91.8691 110.225C90.5098 111.643 88.8457 112.352 86.877 112.352C84.9668 112.352 83.4082 111.807 82.2012 110.717C80.9941 109.627 80.3906 108.279 80.3906 106.674C80.3906 104.646 81.1406 103.094 82.6406 102.016C84.1523 100.926 86.3086 100.381 89.1094 100.381H91.7285V99.1328C91.7285 98.1484 91.4531 97.3633 90.9023 96.7773C90.3516 96.1797 89.5137 95.8809 88.3887 95.8809C87.416 95.8809 86.6191 96.127 85.998 96.6191C85.377 97.0996 85.0664 97.7148 85.0664 98.4648H80.7949C80.7949 97.4219 81.1406 96.4492 81.832 95.5469C82.5234 94.6328 83.4609 93.918 84.6445 93.4023C85.8398 92.8867 87.1699 92.6289 88.6348 92.6289C90.8613 92.6289 92.6367 93.1914 93.9609 94.3164C95.2852 95.4297 95.9648 97 96 99.0273V107.605C96 109.316 96.2402 110.682 96.7207 111.701V112H92.3613ZM87.668 108.924C88.5117 108.924 89.3027 108.719 90.041 108.309C90.791 107.898 91.3535 107.348 91.7285 106.656V103.07H89.4258C87.8438 103.07 86.6543 103.346 85.8574 103.896C85.0605 104.447 84.6621 105.227 84.6621 106.234C84.6621 107.055 84.9316 107.711 85.4707 108.203C86.0215 108.684 86.7539 108.924 87.668 108.924ZM105.826 88.3574V92.9805H109.184V96.1445H105.826V106.762C105.826 107.488 105.967 108.016 106.248 108.344C106.541 108.66 107.057 108.818 107.795 108.818C108.287 108.818 108.785 108.76 109.289 108.643V111.947C108.316 112.217 107.379 112.352 106.477 112.352C103.195 112.352 101.555 110.541 101.555 106.92V96.1445H98.4258V92.9805H101.555V88.3574H105.826ZM117.006 112H112.734V92.9805H117.006V112ZM112.471 88.041C112.471 87.3848 112.676 86.8398 113.086 86.4062C113.508 85.9727 114.105 85.7559 114.879 85.7559C115.652 85.7559 116.25 85.9727 116.672 86.4062C117.094 86.8398 117.305 87.3848 117.305 88.041C117.305 88.6855 117.094 89.2246 116.672 89.6582C116.25 90.0801 115.652 90.291 114.879 90.291C114.105 90.291 113.508 90.0801 113.086 89.6582C112.676 89.2246 112.471 88.6855 112.471 88.041Z" fill="#E7404A"/>
</svg>
